HIERARCHY
ROOT Hips
{
	OFFSET -0.001795 -0.223333 0.028219
	CHANNELS 6 Xposition Yposition Zposition Zrotation Yrotation Xrotation 
	JOINT LeftUpLeg
	{
		OFFSET 0.069520 -0.091406 -0.006815
		CHANNELS 3 Zrotation Yrotation Xrotation
		JOINT LeftLeg
		{
			OFFSET 0.034277 -0.375199 -0.004496
			CHANNELS 3 Zrotation Yrotation Xrotation
			JOINT LeftFoot
			{
				OFFSET -0.013596 -0.397961 -0.043693
				CHANNELS 3 Zrotation Yrotation Xrotation
				JOINT LeftToe
				{
					OFFSET 0.026358 -0.055791 0.119288
					CHANNELS 3 Zrotation Yrotation Xrotation
					End Site
					{
						OFFSET 0.000000 0.000000 0.000000
					}
				}
			}
		}
	}
	JOINT RightUpLeg
	{
		OFFSET -0.067670 -0.090522 -0.004320
		CHANNELS 3 Zrotation Yrotation Xrotation
		JOINT RightLeg
		{
			OFFSET -0.038290 -0.382569 -0.008850
			CHANNELS 3 Zrotation Yrotation Xrotation
			JOINT RightFoot
			{
				OFFSET 0.015774 -0.398415 -0.042312
				CHANNELS 3 Zrotation Yrotation Xrotation
				JOINT RightToe
				{
					OFFSET -0.025372 -0.048144 0.123348
					CHANNELS 3 Zrotation Yrotation Xrotation
					End Site
					{
						OFFSET 0.000000 0.000000 0.000000
					}
				}
			}
		}
	}
	JOINT Spine
	{
		OFFSET -0.002533 0.108963 -0.026696
		CHANNELS 3 Zrotation Yrotation Xrotation
		JOINT Spine1
		{
			OFFSET 0.005487 0.135180 0.001092
			CHANNELS 3 Zrotation Yrotation Xrotation
			JOINT Spine2
			{
				OFFSET 0.001457 0.052922 0.025425
				CHANNELS 3 Zrotation Yrotation Xrotation
				JOINT Neck
				{
					OFFSET -0.002778 0.213870 -0.042857
					CHANNELS 3 Zrotation Yrotation Xrotation
					JOINT Head
					{
						OFFSET 0.005152 0.064970 0.051349
						CHANNELS 3 Zrotation Yrotation Xrotation
						End Site
						{
							OFFSET 0.000000 0.000000 0.000000
						}
					}
				}
				JOINT LeftShoulder
				{
					OFFSET 0.078845 0.121749 -0.034090
					CHANNELS 3 Zrotation Yrotation Xrotation
					JOINT LeftArm
					{
						OFFSET 0.090977 0.030469 -0.008868
						CHANNELS 3 Zrotation Yrotation Xrotation
						JOINT LeftForeArm
						{
							OFFSET 0.259612 -0.012772 -0.027456
							CHANNELS 3 Zrotation Yrotation Xrotation
							JOINT LeftHand
							{
								OFFSET 0.249234 0.008986 -0.001171
								CHANNELS 3 Zrotation Yrotation Xrotation
								End Site
								{
									OFFSET 0.000000 0.000000 0.000000
								}
							}
						}
					}
				}
				JOINT RightShoulder
				{
					OFFSET -0.081759 0.118833 -0.038615
					CHANNELS 3 Zrotation Yrotation Xrotation
					JOINT RightArm
					{
						OFFSET -0.096012 0.032551 -0.009143
						CHANNELS 3 Zrotation Yrotation Xrotation
						JOINT RightForeArm
						{
							OFFSET -0.253742 -0.013329 -0.021401
							CHANNELS 3 Zrotation Yrotation Xrotation
							JOINT RightHand
							{
								OFFSET -0.255298 0.007772 -0.005559
								CHANNELS 3 Zrotation Yrotation Xrotation
								End Site
								{
									OFFSET 0.000000 0.000000 0.000000
								}
							}
						}
					}
				}
			}
		}
	}
}
MOTION
Frames: 15
Frame Time: 0.050000
0.099058 0.963017 1.130112 2.281261 -21.011247 2.676935 1.459190 -0.059183 -1.025336 -4.642260 0.702187 -2.993477 14.348722 24.389307 20.299626 0.000000 0.000000 0.000000 -12.524937 1.204416 -13.533938 -0.174923 0.377973 6.270218 4.268219 -2.419874 16.277467 0.000000 0.000000 0.000000 17.761755 -3.384937 24.810168 -1.744989 0.459882 -20.877626 1.844436 -1.586642 20.235346 24.232584 -16.179373 -17.310567 0.000000 0.000000 0.000000 -4.673876 -27.209680 11.843277 -19.376548 -32.759187 1.257045 8.344594 -61.572163 -0.797588 0.000000 0.000000 0.000000 30.248970 18.781490 4.292472 41.674029 35.232663 7.944400 13.525895 36.944686 4.769946 0.000000 0.000000 0.000000 
0.096772 0.963438 1.131217 2.286120 -20.767667 2.668008 1.709950 -0.037791 -0.861542 -3.758527 0.576743 -2.237821 11.962446 21.200272 18.687356 0.000000 0.000000 0.000000 -12.234792 1.196737 -13.639660 -0.411701 0.424496 6.524702 4.561911 -1.792953 16.151324 0.000000 0.000000 0.000000 17.899049 -3.381796 24.366005 -1.730043 0.459872 -20.772027 1.961943 -1.859209 20.210957 23.498675 -15.632798 -17.641978 0.000000 0.000000 0.000000 -4.522237 -27.054871 11.750508 -19.486562 -32.558511 1.255278 5.401300 -61.921122 0.994195 0.000000 0.000000 0.000000 30.210483 18.685175 4.135081 41.878242 35.220761 8.015088 14.161486 36.526343 4.888536 0.000000 0.000000 0.000000 
0.094523 0.963759 1.132185 2.358359 -20.546110 2.599666 1.841673 -0.024181 -0.742924 -3.340444 0.515139 -1.815286 10.783216 19.545195 17.989029 0.000000 0.000000 0.000000 -12.251058 1.186526 -13.658623 -0.070563 0.408011 6.891086 4.518066 -1.615433 15.799803 0.000000 0.000000 0.000000 17.917726 -3.356739 23.963163 -1.801160 0.483214 -20.683402 2.234468 -2.008287 20.355069 22.893024 -15.259783 -17.726892 0.000000 0.000000 0.000000 -4.385934 -27.249261 11.792260 -19.315630 -32.683360 1.249367 5.013268 -62.030292 1.238092 0.000000 0.000000 0.000000 29.929045 18.746966 4.157098 41.767099 35.403217 8.026924 14.648709 36.392214 5.008835 0.000000 0.000000 0.000000 
0.092467 0.963970 1.133079 2.289221 -20.268875 2.641259 2.035772 -0.024631 -0.810141 -3.168811 0.488145 -1.668052 10.480633 19.086661 18.145760 0.000000 0.000000 0.000000 -12.128144 1.181743 -13.838615 0.127528 0.419874 7.422125 4.586058 -1.259387 15.503663 0.000000 0.000000 0.000000 18.168986 -3.379900 23.571806 -1.896208 0.509503 -20.468195 2.301982 -2.047633 20.187912 22.443522 -15.085682 -17.314429 0.000000 0.000000 0.000000 -4.342034 -27.409928 11.835179 -19.438713 -32.801948 1.293443 4.125173 -61.939264 1.757241 0.000000 0.000000 0.000000 29.844685 18.949798 4.342717 41.610561 35.409640 7.985897 14.821648 36.258443 5.050670 0.000000 0.000000 0.000000 
0.090669 0.963739 1.133917 2.372921 -19.925136 2.531508 2.228741 -0.017315 -0.784469 -3.011189 0.462813 -1.512854 9.757762 18.016087 18.231709 0.000000 0.000000 0.000000 -12.073353 1.164743 -13.833169 0.308361 0.431324 7.942710 4.448186 -1.160201 15.032602 0.000000 0.000000 0.000000 18.248372 -3.391784 23.370370 -2.044478 0.560762 -20.435170 2.365831 -2.310590 20.245683 22.165298 -14.969607 -17.167875 0.000000 0.000000 0.000000 -4.228569 -27.490905 11.837373 -19.525992 -33.193959 1.375395 4.397382 -62.059418 1.636607 0.000000 0.000000 0.000000 29.579613 19.028531 4.371111 41.892339 35.562950 8.091126 14.969322 36.235476 5.082152 0.000000 0.000000 0.000000 
0.089108 0.963595 1.134745 2.392884 -19.578049 2.466833 2.484338 -0.016086 -0.862585 -3.016018 0.461161 -1.385664 9.333329 17.374153 18.615019 0.000000 0.000000 0.000000 -12.053399 1.156914 -14.074641 0.598927 0.447586 8.757107 4.425959 -0.988150 14.800837 0.000000 0.000000 0.000000 18.512097 -3.437919 23.204216 -2.205815 0.614622 -20.452929 2.429728 -2.389066 20.168395 21.497889 -14.523519 -17.223102 0.000000 0.000000 0.000000 -4.252454 -27.804761 11.963083 -19.719081 -33.523077 1.459366 4.666697 -61.876640 1.465490 0.000000 0.000000 0.000000 29.527711 19.058503 4.444118 42.171839 35.500700 8.127240 14.904704 35.865906 5.015676 0.000000 0.000000 0.000000 
0.087676 0.963494 1.135666 2.452898 -19.345735 2.432041 2.603405 -0.028143 -1.061076 -2.871183 0.438113 -0.960940 8.840734 16.648600 18.710523 0.000000 0.000000 0.000000 -12.041543 1.151250 -14.231276 0.745085 0.463552 9.295908 4.349624 -0.951226 14.589270 0.000000 0.000000 0.000000 18.599138 -3.451367 23.062964 -2.203672 0.619233 -20.313941 2.468170 -2.388680 20.011456 20.818171 -14.072600 -17.206523 0.000000 0.000000 0.000000 -4.188272 -27.809266 11.933157 -20.164846 -33.664581 1.565786 4.544993 -62.632300 1.614326 0.000000 0.000000 0.000000 29.522226 19.070631 4.502718 42.781299 35.523329 8.286796 14.459901 35.530911 4.841539 0.000000 0.000000 0.000000 
0.086262 0.963479 1.136840 2.550777 -18.855177 2.353235 2.845554 -0.024524 -1.093399 -2.838383 0.429714 -0.900970 8.034993 15.482490 19.061896 0.000000 0.000000 0.000000 -12.129336 1.134656 -14.452953 0.955853 0.475902 9.975831 4.479495 -0.669818 14.678691 0.000000 0.000000 0.000000 18.783997 -3.475721 22.742911 -2.276682 0.649075 -20.070797 2.470564 -2.471775 19.833580 19.948867 -13.520909 -17.132088 0.000000 0.000000 0.000000 -4.060622 -27.950584 11.925568 -20.477752 -33.724119 1.639276 4.569624 -63.155645 1.642887 0.000000 0.000000 0.000000 29.532845 18.926053 4.491603 43.298289 35.600352 8.430626 13.696800 35.059132 4.564298 0.000000 0.000000 0.000000 
0.085021 0.963455 1.138229 2.586441 -18.758709 2.250771 2.921615 -0.016365 -1.021604 -2.754261 0.416738 -0.770787 7.770779 15.095356 19.281670 0.000000 0.000000 0.000000 -12.113212 1.132264 -14.579261 1.132132 0.489101 10.546411 4.382937 -0.838418 14.701984 0.000000 0.000000 0.000000 18.826122 -3.473423 22.663847 -2.405331 0.689225 -20.070226 2.627366 -2.435596 19.929246 19.469715 -13.292866 -16.865439 0.000000 0.000000 0.000000 -4.171851 -28.024479 11.986513 -20.897659 -33.898259 1.728653 4.757042 -63.906598 1.600314 0.000000 0.000000 0.000000 29.604592 18.845630 4.470658 43.778692 35.727996 8.585037 12.977528 34.577704 4.299344 0.000000 0.000000 0.000000 
0.084096 0.963593 1.139704 2.571160 -18.677210 2.209218 3.043609 -0.014390 -1.055137 -2.599061 0.393538 -0.839243 7.552450 14.750306 20.271783 0.000000 0.000000 0.000000 -12.146800 1.135408 -14.831665 1.324689 0.508813 11.249755 4.568554 -0.494379 14.751024 0.000000 0.000000 0.000000 18.997651 -3.485815 22.531465 -2.529942 0.726561 -20.018146 2.672159 -2.415155 19.841239 18.870214 -12.973274 -16.561024 0.000000 0.000000 0.000000 -4.136258 -28.168404 12.023020 -21.390521 -33.988502 1.842532 4.248414 -64.811726 1.992681 0.000000 0.000000 0.000000 29.414112 18.754362 4.451345 44.613190 35.878061 8.827153 11.887614 34.157162 3.938007 0.000000 0.000000 0.000000 
0.083794 0.963615 1.141024 2.668866 -18.536258 2.164918 3.120733 -0.015759 -1.104458 -2.577783 0.389494 -0.764650 7.063410 14.052450 20.685430 0.000000 0.000000 0.000000 -12.214717 1.136396 -15.095740 1.525728 0.515179 11.817253 4.449848 -0.695375 14.775939 0.000000 0.000000 0.000000 19.190030 -3.517463 22.498999 -2.531124 0.732329 -19.984609 2.585412 -2.314400 19.714042 18.614695 -12.677224 -16.989882 0.000000 0.000000 0.000000 -4.081837 -28.022384 11.924830 -22.451683 -34.478700 2.137258 4.974613 -65.454978 1.627541 0.000000 0.000000 0.000000 29.544029 18.565066 4.392320 45.098933 36.237991 9.092797 10.685580 33.308238 3.515851 0.000000 0.000000 0.000000 
0.084011 0.963630 1.142112 2.854444 -18.312385 2.131652 3.111325 -0.026611 -1.228545 -2.575450 0.387408 -0.571088 6.401587 13.131053 20.786007 0.000000 0.000000 0.000000 -12.347670 1.135780 -15.487831 1.743762 0.529961 12.583165 4.462609 -0.495258 14.577497 0.000000 0.000000 0.000000 19.408119 -3.544948 22.354099 -2.716569 0.795566 -20.006778 2.696283 -2.378463 19.720627 17.888672 -12.204875 -17.040353 0.000000 0.000000 0.000000 -4.323015 -28.218466 12.086480 -22.947456 -34.717103 2.271005 4.986670 -65.841361 1.645648 0.000000 0.000000 0.000000 29.405430 18.493945 4.375067 45.577903 36.431799 9.269296 9.629856 32.823360 3.180319 0.000000 0.000000 0.000000 
0.084516 0.963687 1.143077 2.952249 -18.122381 2.141528 3.032090 -0.041150 -1.370599 -2.439101 0.365740 -0.421949 5.967453 12.533758 20.935325 0.000000 0.000000 0.000000 -12.500020 1.129995 -15.688355 2.035802 0.487295 12.760588 4.419852 -0.656969 14.782951 0.000000 0.000000 0.000000 19.553934 -3.552569 22.133226 -2.674220 0.785796 -19.857260 2.706802 -2.388492 19.585762 17.774595 -12.056158 -17.320172 0.000000 0.000000 0.000000 -4.392518 -28.081672 12.043987 -23.677554 -35.179956 2.512757 5.179969 -65.569947 1.523035 0.000000 0.000000 0.000000 29.492224 18.375440 4.337150 45.767514 36.551985 9.366525 8.947082 32.495618 2.972554 0.000000 0.000000 0.000000 
0.084854 0.963932 1.144074 3.090328 -17.820535 2.106174 2.992374 -0.039605 -1.296535 -2.524608 0.376515 -0.353739 5.484504 11.876364 20.497690 0.000000 0.000000 0.000000 -12.791209 1.108935 -15.772687 2.279574 0.447617 12.914722 4.387279 -0.743187 14.928322 0.000000 0.000000 0.000000 19.726214 -3.582287 22.011177 -2.668511 0.793209 -19.783641 2.768127 -2.402060 19.576427 17.366932 -11.809190 -17.177107 0.000000 0.000000 0.000000 -4.178444 -28.118613 11.964556 -23.948030 -35.640716 2.677137 5.031516 -65.066040 1.583653 0.000000 0.000000 0.000000 29.153136 18.015267 4.193086 46.234080 36.676481 9.479411 8.431782 32.316006 2.827287 0.000000 0.000000 0.000000 
0.084822 0.964369 1.145264 3.135720 -17.712869 2.008579 2.958353 -0.033337 -1.191209 -2.458472 0.365988 -0.297717 5.234345 11.539673 20.634252 0.000000 0.000000 0.000000 -12.863476 1.097992 -15.749308 2.328514 0.435812 12.906695 4.510400 -0.594514 15.094089 0.000000 0.000000 0.000000 19.865805 -3.604059 22.014690 -2.506107 0.754829 -19.893006 2.658202 -2.541184 19.663489 16.969346 -11.583992 -17.104407 0.000000 0.000000 0.000000 -3.814062 -27.903587 11.747585 -24.014441 -35.692669 2.726034 3.797828 -64.688809 2.356014 0.000000 0.000000 0.000000 29.160688 17.954097 4.127509 46.370595 36.283473 9.355783 8.489344 32.325897 2.839648 0.000000 0.000000 0.000000 
